<?xml version="1.0" standalone="no"?>
<!DOCTYPE svg PUBLIC "-//W3C//DTD SVG 20010904//EN"
 "http://www.w3.org/TR/2001/REC-SVG-20010904/DTD/svg10.dtd">
<svg version="1.0" xmlns="http://www.w3.org/2000/svg"
 width="386.000000pt" height="208.000000pt" viewBox="0 0 386.000000 208.000000"
 preserveAspectRatio="xMidYMid meet">

<g transform="translate(0.000000,208.000000) scale(0.100000,-0.100000)"
fill="#000000" stroke="none">
<path d="M693 1865 c-10 -29 16 -219 41 -289 30 -84 85 -165 148 -219 42 -35
48 -45 48 -78 0 -63 43 -137 97 -167 15 -9 15 -17 5 -80 -16 -95 -15 -140 4
-194 19 -57 45 -82 77 -74 28 7 39 30 62 122 10 38 19 70 20 72 1 1 24 -19 51
-46 117 -117 303 -232 424 -262 120 -30 168 -41 202 -47 53 -8 63 -23 49 -77
-15 -59 -14 -110 3 -171 30 -116 81 -135 123 -47 14 30 18 62 18 164 l-1 127
41 10 c22 6 60 15 85 20 98 21 139 36 239 88 112 57 213 133 302 225 31 32 60
58 65 58 6 0 16 -39 23 -87 16 -107 24 -129 51 -143 29 -15 52 -6 75 32 17 29
20 51 20 170 l0 137 37 38 c42 44 68 101 68 151 0 29 11 46 68 106 106 112
167 255 167 391 l0 80 -409 3 -409 2 6 -112 c7 -129 27 -198 87 -299 22 -37
62 -86 90 -109 34 -29 50 -49 50 -66 0 -45 32 -119 67 -155 28 -29 33 -42 28
-60 -4 -13 -58 -73 -119 -134 -162 -161 -339 -260 -533 -300 -39 -8 -40 -2
-13 75 11 30 19 69 20 86 0 24 9 39 40 64 41 34 115 137 143 200 36 81 51 148
51 225 l1 80 -380 3 c-209 1 -395 0 -412 -3 -31 -6 -33 -8 -33 -48 0 -55 25
-193 45 -254 25 -73 62 -132 129 -201 53 -55 62 -70 69 -114 4 -28 11 -56 16
-62 5 -6 12 -21 15 -33 7 -21 4 -23 -26 -23 -42 1 -159 32 -237 63 -94 38
-248 148 -339 241 -74 76 -82 87 -82 123 0 32 7 46 40 78 33 32 42 50 56 114
16 69 23 82 79 142 54 58 80 101 146 240 13 29 30 179 24 210 l-7 29 -404 0
c-354 0 -405 -2 -411 -15z m802 -23 c9 -31 -12 -145 -41 -218 -44 -112 -99
-189 -175 -247 -36 -27 -37 -27 -193 -27 l-158 0 -57 58 c-94 94 -154 239
-149 363 l3 74 70 6 c39 3 210 6 382 7 295 2 312 1 318 -16z m1788 -54 c-2
-113 -62 -257 -148 -355 -68 -78 -84 -83 -254 -83 -166 0 -181 5 -244 81 -72
88 -113 197 -124 323 -5 70 -4 80 12 93 16 11 89 13 390 11 l370 -3 -2 -67z
m-903 -443 c16 -20 7 -106 -20 -188 -46 -140 -148 -277 -220 -297 -47 -13
-291 -13 -326 0 -33 13 -63 45 -114 123 -57 86 -84 175 -85 277 l0 85 170 5
c94 3 263 7 376 8 174 2 209 0 219 -13z m-1141 -29 c14 -17 -1 -94 -25 -131
-22 -34 -79 -65 -118 -65 -43 0 -95 36 -123 85 -54 95 -21 124 143 125 83 0
114 -4 123 -14z m1791 -1 c18 -21 4 -92 -24 -130 -13 -16 -40 -39 -60 -49 -35
-19 -39 -19 -91 -2 -46 14 -59 24 -79 59 -40 68 -42 91 -10 116 24 19 40 21
139 21 88 0 115 -3 125 -15z m-1894 -236 c16 -18 19 -37 19 -123 0 -84 -4
-107 -21 -136 -11 -19 -27 -35 -35 -35 -8 0 -22 16 -32 35 -15 29 -18 54 -15
139 3 94 6 105 27 122 29 24 34 24 57 -2z m1801 -19 c15 -30 17 -161 3 -209
-12 -41 -37 -71 -55 -65 -27 11 -40 68 -40 172 0 92 2 105 20 118 28 20 57 14
72 -16z m-800 -292 c-8 -65 -47 -116 -104 -137 -76 -27 -155 18 -183 104 -10
30 -9 40 4 60 16 25 19 25 153 25 l136 0 -6 -52z m-101 -213 c32 -79 4 -266
-42 -273 -24 -3 -35 18 -54 106 -10 42 -10 67 0 115 15 73 24 87 57 87 18 0
28 -9 39 -35z"/>
<path d="M843 1709 c8 -82 84 -229 118 -229 14 0 10 27 -5 33 -18 7 -82 140
-95 196 -14 64 -25 64 -18 0z"/>
<path d="M2633 1711 c10 -88 89 -231 128 -231 16 0 10 16 -16 40 -14 13 -34
44 -46 69 -11 25 -24 53 -29 62 -5 9 -11 37 -15 63 -10 63 -30 61 -22 -3z"/>
<path d="M1727 1243 c-16 -26 57 -205 99 -244 39 -36 39 -14 2 38 -33 44 -78
154 -78 187 0 17 -16 30 -23 19z"/>
<path d="M500 1043 c-60 -22 -50 -143 13 -143 28 0 66 22 73 42 11 37 -5 88
-32 98 -28 11 -32 11 -54 3z m60 -43 c14 -26 5 -57 -21 -71 -37 -19 -62 25
-43 75 9 23 51 20 64 -4z"/>
<path d="M903 396 c-148 -5 -233 -12 -233 -19 0 -9 459 -2 468 8 17 16 -34 19
-235 11z"/>
<path d="M3696 379 c-47 -37 -30 -93 29 -93 27 0 42 6 56 25 24 31 24 44 -1
69 -26 26 -51 25 -84 -1z m70 -24 c8 -20 -13 -45 -37 -45 -23 0 -32 15 -24 40
8 24 53 28 61 5z"/>
<path d="M608 273 c-40 -2 -68 -8 -68 -15 0 -13 250 -1 264 13 10 9 -47 9
-196 2z"/>
</g>
</svg>
