<?xml version="1.0" standalone="no"?>
<!DOCTYPE svg PUBLIC "-//W3C//DTD SVG 20010904//EN"
 "http://www.w3.org/TR/2001/REC-SVG-20010904/DTD/svg10.dtd">
<svg version="1.0" xmlns="http://www.w3.org/2000/svg"
 width="146.000000pt" height="206.000000pt" viewBox="0 0 146.000000 206.000000"
 preserveAspectRatio="xMidYMid meet">
<metadata>
Created by potrace 1.16, written by Peter Selinger 2001-2019
</metadata>
<g transform="translate(0.000000,206.000000) scale(0.100000,-0.100000)"
fill="#000000" stroke="none">
<path d="M450 1971 c-68 -11 -145 -43 -154 -66 -8 -21 -8 -128 0 -150 11 -28
82 -56 189 -73 l40 -7 3 -135 c2 -74 0 -176 -3 -227 -6 -77 -11 -96 -29 -115
-74 -75 -124 -163 -146 -256 -17 -73 -9 -92 52 -127 29 -16 75 -43 103 -59 52
-29 217 -126 388 -228 54 -32 100 -58 102 -58 3 0 35 -19 72 -41 85 -52 118
-62 160 -48 72 23 183 216 183 317 0 43 -18 57 -190 150 -134 73 -166 90 -200
109 -36 20 -117 64 -237 129 -38 20 -87 48 -110 61 l-43 25 0 249 0 249 28 6
c15 3 50 10 77 16 69 14 112 36 119 62 3 11 6 51 6 87 0 76 -6 83 -96 114 -57
19 -231 28 -314 16z m272 -39 c77 -20 111 -43 106 -75 -2 -18 -9 -22 -38 -20
-19 0 -55 6 -80 12 -80 18 -261 13 -359 -11 -7 -2 -18 5 -24 14 -10 15 -7 22
13 42 52 52 251 71 382 38z m-75 -108 c193 -31 220 -78 60 -105 -60 -10 -77
-4 -77 30 0 42 -13 53 -56 49 -37 -3 -39 -5 -42 -40 l-3 -38 -55 0 c-30 0 -62
4 -72 10 -9 5 -29 14 -44 20 -72 25 13 67 184 89 4 1 51 -6 105 -15z m-53
-107 c8 -33 3 -494 -6 -502 -4 -4 -15 -5 -24 -1 -15 6 -16 30 -12 254 2 136 7
253 11 260 12 19 24 14 31 -11z m7 -565 c30 -16 79 -42 109 -59 30 -17 91 -49
135 -73 44 -23 89 -48 100 -55 11 -7 56 -31 100 -55 44 -24 105 -56 135 -73
84 -45 140 -78 140 -83 0 -3 -18 -28 -39 -57 -55 -74 -100 -160 -112 -218 -6
-27 -15 -51 -20 -55 -5 -3 -32 8 -59 25 -28 17 -52 31 -55 31 -2 0 -59 33
-127 73 -168 100 -317 188 -351 206 -16 9 -36 21 -45 26 -9 6 -43 25 -74 43
-31 18 -60 41 -63 52 -9 28 4 88 33 150 26 56 105 150 127 150 6 0 36 -13 66
-28z m772 -483 c-5 -92 -134 -288 -174 -263 -33 20 30 186 102 268 53 60 75
58 72 -5z"/>
</g>
</svg>
