<?xml version="1.0" standalone="no"?>
<!DOCTYPE svg PUBLIC "-//W3C//DTD SVG 20010904//EN"
 "http://www.w3.org/TR/2001/REC-SVG-20010904/DTD/svg10.dtd">
<svg version="1.0" xmlns="http://www.w3.org/2000/svg"
 width="190.000000pt" height="384.000000pt" viewBox="0 0 190.000000 384.000000"
 preserveAspectRatio="xMidYMid meet">
<metadata>
Created by potrace 1.16, written by Peter Selinger 2001-2019
</metadata>
<g transform="translate(0.000000,384.000000) scale(0.100000,-0.100000)"
fill="#000000" stroke="none">
<path d="M836 3623 c-7 -39 -27 -173 -52 -345 -8 -54 -20 -142 -28 -195 -8
-54 -22 -147 -31 -208 -9 -60 -20 -137 -25 -170 -5 -33 -14 -98 -21 -143 -10
-71 -10 -85 2 -93 8 -5 114 -9 236 -9 122 0 233 -4 247 -10 20 -7 26 -17 26
-39 0 -33 -13 -46 -53 -56 -44 -11 -47 -33 -12 -81 14 -19 13 -25 -10 -67 -13
-26 -65 -86 -114 -134 -104 -102 -117 -132 -108 -251 6 -75 40 -155 89 -206
30 -32 78 -136 78 -170 0 -61 1 -61 206 -59 109 2 192 7 199 13 7 6 15 32 17
59 5 52 35 118 69 154 11 12 36 50 56 84 28 50 36 77 40 135 9 118 -4 149
-107 249 -83 81 -130 145 -130 179 0 8 9 21 20 28 24 15 27 57 4 66 -9 3 -26
6 -39 6 -44 0 -55 10 -55 50 l0 38 54 7 c30 3 86 3 125 -1 l70 -6 6 -40 c4
-22 4 -78 0 -124 -4 -45 -4 -92 0 -103 15 -48 65 -24 65 32 0 18 -9 57 -20 87
-25 68 -27 145 -4 154 9 3 48 6 89 6 40 0 87 3 105 7 l33 6 -7 56 c-3 31 -12
108 -20 171 -26 212 -47 374 -57 450 -5 41 -16 129 -24 195 -8 66 -19 160 -26
210 -6 49 -16 93 -22 97 -7 4 -204 8 -438 8 l-426 0 -7 -37z m621 7 l223 0 11
-27 c10 -28 18 -77 44 -288 8 -66 22 -174 31 -240 54 -417 70 -572 60 -583
-10 -9 -1112 -9 -1121 0 -9 8 13 180 70 553 17 111 22 146 49 335 29 199 36
242 43 253 4 7 66 8 186 4 99 -4 281 -7 404 -7z m-68 -1400 c12 -33 41 -70
107 -135 123 -122 128 -132 129 -230 0 -93 -13 -126 -85 -225 -53 -72 -80
-129 -80 -169 0 -52 -6 -54 -179 -59 -145 -4 -164 -3 -181 13 -11 10 -20 30
-20 46 0 32 -48 127 -83 165 -43 46 -79 133 -85 201 -7 88 24 147 121 235 67
61 112 125 131 191 5 16 17 17 107 15 l102 -3 16 -45z"/>
</g>
</svg>
