<?xml version="1.0" standalone="no"?>
<!DOCTYPE svg PUBLIC "-//W3C//DTD SVG 20010904//EN"
 "http://www.w3.org/TR/2001/REC-SVG-20010904/DTD/svg10.dtd">
<svg version="1.0" xmlns="http://www.w3.org/2000/svg"
 width="218.000000pt" height="188.000000pt" viewBox="0 0 218.000000 188.000000"
 preserveAspectRatio="xMidYMid meet">
<metadata>
Created by potrace 1.16, written by Peter Selinger 2001-2019
</metadata>
<g transform="translate(0.000000,188.000000) scale(0.100000,-0.100000)"
fill="#000000" stroke="none">
<path d="M1465 1549 c-71 -4 -287 -13 -480 -19 -538 -17 -645 -22 -651 -31 -3
-5 94 -9 214 -9 250 0 232 8 232 -94 0 -85 23 -141 93 -229 l28 -35 -16 -169
c-8 -92 -20 -206 -25 -253 -5 -47 -9 -102 -9 -122 -1 -36 -1 -37 31 -27 17 5
61 20 97 34 l66 26 43 -40 c115 -110 302 -32 319 134 6 52 6 53 57 75 28 13
70 31 94 42 23 10 42 22 42 27 0 5 -55 66 -122 136 -164 170 -160 162 -116
216 70 87 77 114 56 226 -7 39 -8 67 -2 72 5 5 99 14 209 21 110 7 204 17 210
21 11 11 -187 9 -370 -2z m-92 -41 c12 -10 18 -31 19 -78 l3 -65 -45 -7 c-25
-3 -152 -10 -283 -14 -201 -6 -240 -5 -248 7 -5 8 -9 42 -9 75 0 59 1 62 28
70 15 4 115 10 222 14 107 3 218 7 246 8 27 1 58 -4 67 -10z m15 -204 c2 -12
-12 -37 -35 -63 -38 -42 -38 -42 -133 -52 -52 -5 -144 -12 -205 -15 -107 -6
-111 -6 -132 17 -35 39 -65 101 -55 111 9 9 368 27 497 24 53 -1 60 -4 63 -22z
m29 -281 c73 -76 132 -145 133 -154 0 -11 -20 -24 -57 -39 -32 -13 -71 -29
-88 -36 -16 -7 -55 -22 -85 -34 -30 -11 -64 -25 -75 -29 -11 -5 -56 -23 -100
-41 -44 -17 -89 -35 -100 -40 -52 -24 -128 -50 -145 -50 -18 0 -20 7 -20 58 1
114 45 458 62 479 9 12 65 16 257 21 l85 2 133 -137z m-37 -313 c0 -97 -126
-184 -215 -150 -35 13 -75 48 -75 65 0 17 91 58 240 108 38 13 50 7 50 -23z"/>
</g>
</svg>
